<svg width="225" height="207" viewBox="0 0 225 207" fill="none" xmlns="http://www.w3.org/2000/svg">
<path d="M60.3054 185.082L54.8352 197.537L52.4081 195.537L56.4856 186.97L56.3935 186.894L48.7248 192.502L46.324 190.524L50.3295 181.964L50.2309 181.883L42.6604 187.505L40.2267 185.5L51.4127 177.754L53.8924 179.798L50.161 188.186L50.2991 188.3L57.8192 183.033L60.3054 185.082Z" fill="#818181"/>
<path d="M43.7757 169.578L33.4232 177.59L31.5922 175.224L33.3177 173.889L33.2342 173.781C32.4905 174.055 31.7796 174.088 31.1014 173.88C30.4152 173.671 29.8425 173.27 29.3835 172.677C29.2792 172.542 29.1694 172.386 29.0542 172.209C28.9311 172.032 28.8373 171.878 28.7728 171.748L31.0172 170.011C31.0612 170.142 31.1567 170.331 31.3036 170.576C31.4426 170.821 31.592 171.046 31.752 171.253C32.0963 171.698 32.5024 172.023 32.9703 172.229C33.4303 172.433 33.907 172.506 34.4005 172.447C34.894 172.389 35.3609 172.189 35.8012 171.848L41.8874 167.138L43.7757 169.578Z" fill="#818181"/>
<path d="M35.3916 157.633L23.9783 164.045L22.4673 161.355L33.8806 154.944L35.3916 157.633ZM21.5988 163.603C21.8381 164.029 21.9028 164.475 21.793 164.94C21.6782 165.409 21.4202 165.756 21.0189 165.981C20.6127 166.209 20.1822 166.249 19.7273 166.101C19.2675 165.955 18.9179 165.669 18.6786 165.243C18.4364 164.812 18.3742 164.365 18.4917 163.901C18.6016 163.436 18.8596 163.089 19.2658 162.86C19.667 162.635 20.0976 162.595 20.5574 162.741C21.0095 162.884 21.3566 163.172 21.5988 163.603Z" fill="#818181"/>
<path d="M15.5533 145.867L17.7824 145.015L20.4687 152.045L18.2396 152.897L15.5533 145.867ZM14.6466 152.281L13.5453 149.399L25.0254 145.012C25.4129 144.864 25.6878 144.692 25.8502 144.496C26.0052 144.297 26.0824 144.085 26.0816 143.86C26.0809 143.635 26.0349 143.403 25.9436 143.165C25.8746 142.984 25.7985 142.825 25.7152 142.686C25.6298 142.542 25.5613 142.435 25.5097 142.363L27.5771 141.017C27.689 141.15 27.8316 141.348 28.0048 141.611C28.176 141.867 28.3449 142.198 28.5117 142.603C28.8088 143.317 28.9484 144.008 28.9307 144.678C28.9076 145.35 28.7062 145.953 28.3265 146.487C27.9448 147.017 27.3707 147.424 26.6044 147.711L14.6466 152.281Z" fill="#818181"/>
<path d="M24.6472 127.837C24.8754 129.129 24.8038 130.293 24.4325 131.328C24.0547 132.358 23.4151 133.212 22.5136 133.891C21.6065 134.57 20.4787 135.029 19.1302 135.267C17.8041 135.501 16.5958 135.454 15.5054 135.128C14.4084 134.796 13.4996 134.224 12.7791 133.411C12.053 132.598 11.5813 131.577 11.3641 130.346C11.2238 129.551 11.2202 128.779 11.3531 128.028C11.4795 127.273 11.7606 126.577 12.1964 125.941C12.6311 125.299 13.2321 124.748 13.9993 124.29C14.761 123.832 15.7069 123.504 16.8372 123.304L17.7688 123.14L19.6338 133.707L17.5859 134.068L16.2349 126.414C15.654 126.522 15.1586 126.739 14.7489 127.065C14.3335 127.393 14.0333 127.8 13.8484 128.289C13.6624 128.772 13.6208 129.304 13.7235 129.886C13.8331 130.507 14.0805 131.026 14.4656 131.443C14.8451 131.86 15.3014 132.158 15.8346 132.335C16.3613 132.507 16.9132 132.545 17.4905 132.449L19.2782 132.134C20.028 132.001 20.6473 131.751 21.1361 131.382C21.6192 131.014 21.96 130.558 22.1585 130.016C22.3514 129.474 22.3895 128.873 22.273 128.213C22.195 127.771 22.0628 127.381 21.8765 127.045C21.6846 126.71 21.4424 126.432 21.1498 126.213C20.8572 125.993 20.5171 125.848 20.1298 125.778L19.948 122.885C20.7294 122.932 21.4443 123.157 22.0927 123.562C22.7345 123.963 23.2779 124.524 23.7229 125.248C24.1624 125.972 24.4705 126.835 24.6472 127.837Z" fill="#818181"/>
<path d="M23.8313 101.697C23.77 102.21 23.5368 102.629 23.132 102.953C22.7271 103.276 22.2654 103.404 21.7471 103.336C21.2387 103.281 20.8258 103.049 20.5086 102.639C20.1913 102.229 20.0634 101.768 20.1247 101.254C20.1841 100.758 20.4162 100.348 20.8211 100.024C21.2266 99.6949 21.6836 99.5578 22.192 99.6128C22.5355 99.6596 22.8378 99.7873 23.099 99.9959C23.3609 100.199 23.5596 100.451 23.6951 100.754C23.8257 101.05 23.8711 101.364 23.8313 101.697Z" fill="#818181"/>
<path d="M29.0405 79.4237L15.6327 77.1246L16.987 74.2862L26.2853 76.1732L26.3367 76.0655L19.0423 69.9787L20.382 67.1712L29.6561 68.99L29.7112 68.8746L22.4263 62.8867L23.7843 60.0407L34.0026 69.0242L32.6189 71.924L23.5776 70.3296L23.5006 70.4912L30.4278 76.5161L29.0405 79.4237Z" fill="#818181"/>
<path d="M40.0921 59.6379L29.8161 51.5277L31.6694 49.1795L33.3821 50.5312L33.4666 50.4241C33.0212 49.7686 32.8175 49.0867 32.8554 48.3783C32.8924 47.662 33.1432 47.0095 33.6079 46.4207C33.7135 46.2869 33.8381 46.1428 33.9817 45.9883C34.1244 45.8259 34.2509 45.6977 34.3612 45.6038L36.589 47.3621C36.4724 47.4365 36.3127 47.5746 36.1099 47.7765C35.9062 47.9704 35.7234 48.17 35.5615 48.3751C35.213 48.8167 34.9956 49.2893 34.9093 49.793C34.822 50.2887 34.8665 50.769 35.0426 51.2337C35.2187 51.6984 35.5253 52.1032 35.9624 52.4482L42.0035 57.2161L40.0921 59.6379Z" fill="#818181"/>
<path d="M49.657 48.6166L40.678 39.0903L42.9231 36.9742L51.9021 46.5004L49.657 48.6166ZM40.5324 36.6744C40.1768 37.0095 39.7597 37.1801 39.2813 37.186C38.7989 37.1878 38.3998 37.0213 38.0842 36.6864C37.7646 36.3473 37.6219 35.9392 37.6561 35.4619C37.6865 34.9804 37.8794 34.5721 38.235 34.237C38.5947 33.8979 39.0137 33.7295 39.4919 33.7315C39.9704 33.7256 40.3694 33.8921 40.689 34.2312C41.0047 34.5661 41.1474 34.9743 41.117 35.4557C41.087 35.9291 40.8921 36.3353 40.5324 36.6744Z" fill="#818181"/>
<path d="M56.2822 26.5231L57.6473 28.4804L51.4748 32.7855L50.1096 30.8282L56.2822 26.5231ZM49.8394 27.1929L52.3699 25.4279L59.4004 35.5081C59.6377 35.8483 59.871 36.0736 60.1003 36.1838C60.331 36.2861 60.5553 36.3098 60.7732 36.2548C60.9912 36.1997 61.205 36.0991 61.4147 35.9528C61.5731 35.8423 61.7095 35.7299 61.8237 35.6156C61.9426 35.498 62.0305 35.4056 62.0874 35.3382L63.8936 37.019C63.791 37.1599 63.6333 37.3461 63.4207 37.5775C63.2127 37.8057 62.9325 38.0496 62.5802 38.3092C61.9594 38.7699 61.3219 39.0725 60.6676 39.2171C60.0101 39.357 59.3762 39.3073 58.766 39.0679C58.1603 38.8253 57.6258 38.3668 57.1624 37.6925L49.8394 27.1929Z" fill="#818181"/>
<path d="M75.9753 30.9918C74.7761 31.5254 73.6297 31.7371 72.5358 31.6269C71.4448 31.5091 70.4613 31.0948 69.5852 30.3839C68.7068 29.6678 67.9893 28.6842 67.4325 27.4332C66.8851 26.2029 66.6382 25.0192 66.6918 23.8821C66.7484 22.7375 67.0843 21.7174 67.6994 20.8218C68.3122 19.9209 69.1896 19.2164 70.3317 18.7082C71.0688 18.3802 71.8175 18.19 72.5778 18.1377C73.341 18.0779 74.0841 18.1826 74.8071 18.4517C75.5353 18.7184 76.2145 19.1687 76.8448 19.8024C77.4728 20.4309 78.0201 21.2694 78.4867 22.318L78.8713 23.1823L69.0681 27.5449L68.2226 25.645L75.3239 22.4848C75.0785 21.9473 74.748 21.5191 74.3325 21.2002C73.9147 20.8762 73.4464 20.6835 72.9278 20.622C72.4143 20.5582 71.8876 20.6464 71.3477 20.8867C70.7715 21.1431 70.3278 21.5085 70.0165 21.9828C69.7029 22.452 69.5246 22.9667 69.4816 23.5269C69.4415 24.0796 69.5378 24.6244 69.7705 25.1614L70.5086 26.8199C70.8181 27.5155 71.211 28.0559 71.6871 28.441C72.1609 28.821 72.6851 29.0417 73.2598 29.1031C73.8321 29.1594 74.4245 29.0512 75.037 28.7787C75.4471 28.5962 75.7929 28.3739 76.0743 28.1118C76.3534 27.8446 76.5641 27.5425 76.7064 27.2055C76.8488 26.8685 76.9071 26.5036 76.8816 26.1108L79.6451 25.2354C79.7885 26.005 79.7421 26.7532 79.506 27.4802C79.2727 28.1997 78.8588 28.8628 78.2643 29.4694C77.6675 30.0708 76.9045 30.5783 75.9753 30.9918Z" fill="#818181"/>
<path d="M101.144 23.8849C100.631 23.9494 100.168 23.8243 99.7563 23.5096C99.3445 23.1948 99.1089 22.7778 99.0493 22.2584C98.9799 21.7518 99.1057 21.295 99.4268 20.8882C99.7478 20.4813 100.165 20.2456 100.678 20.1811C101.174 20.1187 101.628 20.2449 102.04 20.5596C102.457 20.8737 102.701 21.284 102.77 21.7907C102.808 22.1353 102.757 22.4595 102.617 22.7633C102.484 23.0665 102.287 23.3203 102.026 23.5249C101.77 23.7231 101.476 23.8431 101.144 23.8849Z" fill="#818181"/>
<path d="M124.016 23.5587L123.007 9.99267L126.089 10.6211L126.504 20.0999L126.621 20.1237L130.765 11.5749L133.813 12.1966L134.289 21.6354L134.414 21.661L138.465 13.1452L141.555 13.7754L135.306 25.8614L132.158 25.2193L131.521 16.0606L131.345 16.0249L127.172 24.2025L124.016 23.5587Z" fill="#818181"/>
<path d="M145.885 29.5029L151.273 17.5719L153.999 18.803L153.101 20.7915L153.225 20.8476C153.754 20.2571 154.366 19.8947 155.063 19.7604C155.767 19.6232 156.461 19.7089 157.144 20.0176C157.3 20.0877 157.47 20.1738 157.654 20.2759C157.846 20.3751 158.001 20.4669 158.119 20.5512L156.951 23.1378C156.851 23.0426 156.678 22.921 156.433 22.773C156.196 22.6222 155.958 22.493 155.72 22.3854C155.207 22.154 154.696 22.0572 154.186 22.0951C153.684 22.1302 153.229 22.2894 152.821 22.5725C152.412 22.8557 152.094 23.251 151.864 23.7585L148.697 30.7726L145.885 29.5029Z" fill="#818181"/>
<path d="M158.891 36.1218L165.966 25.1073L168.562 26.7746L161.487 37.7891L158.891 36.1218ZM168.275 24.3823C167.864 24.1182 167.598 23.7547 167.476 23.2919C167.358 22.8242 167.423 22.3968 167.672 22.0095C167.924 21.6175 168.285 21.3805 168.757 21.2984C169.231 21.2115 169.674 21.3 170.085 21.5641C170.501 21.8313 170.766 22.1971 170.879 22.6617C171.001 23.1246 170.935 23.552 170.684 23.944C170.435 24.3313 170.073 24.5683 169.599 24.6552C169.132 24.7404 168.691 24.6494 168.275 24.3823Z" fill="#818181"/>
<path d="M181.931 37.2131L180.361 39.0107L174.692 34.0611L176.262 32.2635L181.931 37.2131ZM179.724 31.1229L182.048 33.1521L173.965 42.4097C173.692 42.7221 173.53 43.0029 173.478 43.252C173.435 43.5006 173.466 43.724 173.572 43.9222C173.678 44.1204 173.828 44.3036 174.02 44.4717C174.166 44.5988 174.308 44.7039 174.446 44.7872C174.589 44.8741 174.7 44.9371 174.779 44.976L173.584 47.1348C173.423 47.0692 173.204 46.9612 172.928 46.8108C172.657 46.6641 172.352 46.4511 172.015 46.172C171.418 45.6808 170.97 45.1353 170.672 44.5354C170.377 43.9312 170.273 43.3041 170.357 42.654C170.447 42.0077 170.762 41.3783 171.305 40.7657L179.724 31.1229Z" fill="#818181"/>
<path d="M182.352 57.4024C181.544 56.3678 181.062 55.3064 180.905 54.2183C180.755 53.1312 180.92 52.0767 181.398 51.0548C181.881 50.0294 182.662 49.0955 183.741 48.253C184.803 47.4246 185.892 46.899 187.008 46.6764C188.133 46.4548 189.204 46.5342 190.221 46.9147C191.244 47.2918 192.139 47.973 192.908 48.9584C193.405 49.5944 193.77 50.275 194.004 51.0002C194.247 51.7264 194.325 52.4727 194.238 53.2393C194.155 54.0104 193.883 54.7782 193.42 55.543C192.962 56.3042 192.28 57.0378 191.376 57.744L190.63 58.326L184.028 49.8672L185.667 48.5877L190.45 54.7152C190.912 54.3471 191.248 53.923 191.457 53.4428C191.67 52.959 191.744 52.4581 191.678 51.9399C191.616 51.4263 191.403 50.9365 191.04 50.4707C190.652 49.9735 190.19 49.6312 189.654 49.4437C189.123 49.2527 188.581 49.204 188.027 49.2976C187.481 49.3922 186.975 49.6173 186.511 49.9729L185.08 51.0898C184.479 51.5582 184.05 52.07 183.791 52.6251C183.537 53.1766 183.449 53.7386 183.529 54.3111C183.612 54.88 183.86 55.4288 184.273 55.9573C184.549 56.3112 184.848 56.593 185.17 56.8027C185.497 57.009 185.841 57.1405 186.203 57.1972C186.564 57.2539 186.932 57.2224 187.307 57.1027L188.824 59.5729C188.112 59.898 187.375 60.0337 186.612 59.9802C185.858 59.9276 185.114 59.6862 184.382 59.2558C183.654 58.822 182.978 58.2042 182.352 57.4024Z" fill="#818181"/>
<path d="M195.329 80.1082C195.142 79.626 195.152 79.1471 195.358 78.6714C195.564 78.1958 195.912 77.8663 196.401 77.6831C196.876 77.4933 197.35 77.505 197.822 77.7183C198.294 77.9316 198.624 78.2793 198.81 78.7616C198.991 79.2279 198.978 79.6989 198.772 80.1745C198.568 80.6554 198.229 80.9908 197.754 81.1806C197.429 81.3003 197.102 81.3293 196.773 81.2675C196.447 81.211 196.153 81.081 195.891 80.8775C195.637 80.6773 195.45 80.4209 195.329 80.1082Z" fill="#818181"/>
<path d="M201.171 102.224L214.092 97.9682L214.226 101.11L205.129 103.803L205.134 103.922L214.43 105.879L214.564 108.987L205.519 111.728L205.525 111.856L214.767 113.729L214.902 116.88L201.664 113.736L201.527 110.526L210.26 107.695L210.252 107.516L201.309 105.443L201.171 102.224Z" fill="#818181"/>
<path d="M200.686 124.882L213.566 127.227L213.03 130.17L210.883 129.779L210.859 129.914C211.559 130.284 212.059 130.791 212.358 131.434C212.661 132.084 212.745 132.778 212.611 133.516C212.58 133.684 212.538 133.869 212.483 134.073C212.434 134.284 212.382 134.456 212.329 134.591L209.536 134.082C209.605 133.962 209.681 133.765 209.765 133.492C209.854 133.225 209.922 132.963 209.969 132.706C210.07 132.152 210.04 131.633 209.88 131.147C209.725 130.669 209.46 130.265 209.087 129.938C208.714 129.61 208.253 129.396 207.705 129.296L200.134 127.917L200.686 124.882Z" fill="#818181"/>
<path d="M197.406 139.101L209.803 143.306L208.812 146.227L196.415 142.023L197.406 139.101ZM211.065 145.371C211.221 144.908 211.51 144.562 211.93 144.333C212.355 144.105 212.785 144.065 213.221 144.213C213.663 144.362 213.98 144.656 214.173 145.094C214.372 145.533 214.393 145.984 214.237 146.447C214.078 146.915 213.787 147.26 213.363 147.483C212.943 147.712 212.513 147.752 212.072 147.603C211.636 147.455 211.318 147.161 211.119 146.722C210.924 146.29 210.906 145.839 211.065 145.371Z" fill="#818181"/>
<path d="M201.913 161.722L199.789 160.633L203.223 153.937L205.346 155.025L201.913 161.722ZM207.29 158.11L205.882 160.855L194.946 155.248C194.577 155.059 194.265 154.969 194.011 154.979C193.759 154.997 193.55 155.081 193.383 155.232C193.216 155.383 193.075 155.572 192.958 155.8C192.87 155.972 192.802 156.135 192.755 156.289C192.705 156.449 192.671 156.572 192.652 156.658L190.269 156.02C190.293 155.848 190.345 155.609 190.425 155.305C190.501 155.006 190.634 154.659 190.824 154.265C191.156 153.567 191.577 153.001 192.087 152.566C192.603 152.134 193.186 151.881 193.837 151.806C194.486 151.737 195.173 151.891 195.898 152.269L207.29 158.11Z" fill="#818181"/>
<path d="M182.423 167.009C183.232 165.975 184.146 165.251 185.164 164.835C186.182 164.427 187.245 164.332 188.353 164.549C189.464 164.77 190.559 165.302 191.637 166.146C192.698 166.976 193.471 167.906 193.957 168.936C194.443 169.973 194.625 171.032 194.502 172.111C194.383 173.194 193.938 174.228 193.168 175.212C192.67 175.848 192.098 176.367 191.451 176.769C190.805 177.18 190.1 177.436 189.335 177.537C188.567 177.643 187.756 177.564 186.902 177.3C186.052 177.039 185.176 176.555 184.272 175.847L183.527 175.264L190.14 166.815L191.778 168.096L186.987 174.217C187.456 174.577 187.949 174.8 188.465 174.887C188.986 174.977 189.49 174.928 189.977 174.739C190.461 174.555 190.884 174.23 191.249 173.764C191.637 173.268 191.858 172.737 191.911 172.172C191.968 171.611 191.884 171.072 191.659 170.557C191.435 170.05 191.095 169.614 190.638 169.249L189.208 168.13C188.608 167.661 188.008 167.368 187.407 167.251C186.81 167.138 186.244 167.188 185.707 167.404C185.176 167.622 184.703 167.996 184.29 168.523C184.013 168.877 183.812 169.235 183.686 169.599C183.565 169.966 183.521 170.331 183.553 170.696C183.585 171.06 183.705 171.41 183.911 171.745L181.881 173.814C181.393 173.201 181.084 172.519 180.951 171.766C180.82 171.021 180.875 170.241 181.115 169.427C181.361 168.615 181.797 167.81 182.423 167.009Z" fill="#818181"/>
<path d="M163.525 185.087C163.948 184.789 164.415 184.683 164.927 184.768C165.438 184.853 165.842 185.11 166.138 185.541C166.437 185.956 166.54 186.419 166.447 186.929C166.354 187.438 166.096 187.842 165.673 188.14C165.264 188.427 164.804 188.529 164.293 188.444C163.777 188.362 163.369 188.114 163.071 187.699C162.876 187.412 162.769 187.102 162.749 186.768C162.725 186.438 162.78 186.121 162.915 185.818C163.048 185.523 163.251 185.279 163.525 185.087Z" fill="#818181"/>
</svg>
